<svg width="18" height="20" viewBox="0 0 18 20" fill="none" xmlns="http://www.w3.org/2000/svg">
<path d="M16.4309 2.98206C16.0507 2.98206 16.2996 2.97274 15.3745 3.02864C15.838 2.06161 15.7117 2.33695 15.9499 1.7824C16.0727 1.49644 15.9377 1.16622 15.6484 1.04487C15.3591 0.923473 15.025 1.05689 14.9022 1.34285L14.3565 2.61359C12.5575 1.33283 10.0615 1.58528 8.56198 3.22812C8.56198 3.22812 2.41632 8.56309 2.4027 8.57775C-0.234807 10.994 1.05149 15.3359 4.5573 15.9914V16.7931C4.5573 18.8918 9.26209 19.5884 11.8456 18.4712C12.7837 18.0655 13.3003 17.4695 13.3003 16.7931V14.925C13.3003 13.7523 11.8468 13.1276 10.665 12.8865L14.679 9.37965C16.2843 7.97531 16.5763 5.79259 15.6737 4.10708H16.4309C16.7452 4.10708 17 3.85526 17 3.54459C17 3.23392 16.7451 2.98206 16.4309 2.98206ZM2.13818 11.7462C2.13818 9.98394 3.58866 8.55025 5.37151 8.55025C7.562 8.55025 9.12427 10.6715 8.44731 12.7309C7.53476 12.7777 6.68352 12.9565 6.01194 13.2469C5.11361 13.6354 4.60215 14.1984 4.56036 14.8395C3.16896 14.4827 2.13818 13.2315 2.13818 11.7462ZM11.3894 17.4404C10.0519 18.0189 7.80631 18.0192 6.46816 17.4404C5.93437 17.2096 5.69542 16.9489 5.69542 16.793V16.4503C7.38644 17.3587 10.471 17.3589 12.1621 16.4503V16.793C12.1621 16.9489 11.9232 17.2096 11.3894 17.4404ZM12.1621 14.925C12.1621 15.0809 11.9231 15.3416 11.3893 15.5724C10.0519 16.1508 7.80628 16.1511 6.46813 15.5724C5.93433 15.3416 5.69539 15.0809 5.69539 14.925C5.69539 14.7691 5.93433 14.5084 6.46813 14.2776C7.80557 13.6992 10.0512 13.6989 11.3893 14.2776C11.9232 14.5084 12.1621 14.7691 12.1621 14.925ZM13.9279 8.53299C13.8931 8.56277 14.3704 8.14765 9.71735 12.2128C9.99389 9.68417 8.00866 7.47069 5.44944 7.42622C9.61599 3.8104 9.3536 4.04095 9.38875 4.00186C10.0039 3.31667 10.8748 2.92577 11.8074 2.92577C13.5902 2.92577 15.0407 4.35947 15.0407 6.12172C15.0407 7.0459 14.6351 7.9248 13.9279 8.53299Z" fill="white" stroke="#D5AF86" stroke-width="0.2"/>
</svg>
